<svg xmlns="http://www.w3.org/2000/svg" xmlns:xlink="http://www.w3.org/1999/xlink" viewBox="0 0 388.548 355.244">
  <defs>
    <style>
      .cls-1 {
        fill: none;
      }

      .cls-2 {
        opacity: 0.131;
        clip-path: url(#clip-path);
      }

      .cls-3 {
        fill: #fff;
      }
    </style>
    <clipPath id="clip-path">
      <rect class="cls-1" width="388.548" height="355.244"/>
    </clipPath>
  </defs>
  <g id="Repeat_Grid_5" data-name="Repeat Grid 5" class="cls-2">
    <g transform="translate(-719 -7320)">
      <circle id="Ellipse_173" data-name="Ellipse 173" class="cls-3" cx="2.5" cy="2.5" r="2.5" transform="translate(719 7320)"/>
    </g>
    <g transform="translate(-694 -7320)">
      <circle id="Ellipse_173-2" data-name="Ellipse 173" class="cls-3" cx="2.5" cy="2.5" r="2.5" transform="translate(719 7320)"/>
    </g>
    <g transform="translate(-669 -7320)">
      <circle id="Ellipse_173-3" data-name="Ellipse 173" class="cls-3" cx="2.5" cy="2.5" r="2.5" transform="translate(719 7320)"/>
    </g>
    <g transform="translate(-644 -7320)">
      <circle id="Ellipse_173-4" data-name="Ellipse 173" class="cls-3" cx="2.5" cy="2.5" r="2.5" transform="translate(719 7320)"/>
    </g>
    <g transform="translate(-619 -7320)">
      <circle id="Ellipse_173-5" data-name="Ellipse 173" class="cls-3" cx="2.5" cy="2.5" r="2.5" transform="translate(719 7320)"/>
    </g>
    <g transform="translate(-594 -7320)">
      <circle id="Ellipse_173-6" data-name="Ellipse 173" class="cls-3" cx="2.5" cy="2.5" r="2.5" transform="translate(719 7320)"/>
    </g>
    <g transform="translate(-569 -7320)">
      <circle id="Ellipse_173-7" data-name="Ellipse 173" class="cls-3" cx="2.5" cy="2.5" r="2.5" transform="translate(719 7320)"/>
    </g>
    <g transform="translate(-544 -7320)">
      <circle id="Ellipse_173-8" data-name="Ellipse 173" class="cls-3" cx="2.5" cy="2.5" r="2.5" transform="translate(719 7320)"/>
    </g>
    <g transform="translate(-519 -7320)">
      <circle id="Ellipse_173-9" data-name="Ellipse 173" class="cls-3" cx="2.5" cy="2.5" r="2.5" transform="translate(719 7320)"/>
    </g>
    <g transform="translate(-494 -7320)">
      <circle id="Ellipse_173-10" data-name="Ellipse 173" class="cls-3" cx="2.5" cy="2.5" r="2.5" transform="translate(719 7320)"/>
    </g>
    <g transform="translate(-469 -7320)">
      <circle id="Ellipse_173-11" data-name="Ellipse 173" class="cls-3" cx="2.5" cy="2.5" r="2.5" transform="translate(719 7320)"/>
    </g>
    <g transform="translate(-444 -7320)">
      <circle id="Ellipse_173-12" data-name="Ellipse 173" class="cls-3" cx="2.5" cy="2.5" r="2.5" transform="translate(719 7320)"/>
    </g>
    <g transform="translate(-419 -7320)">
      <circle id="Ellipse_173-13" data-name="Ellipse 173" class="cls-3" cx="2.5" cy="2.5" r="2.5" transform="translate(719 7320)"/>
    </g>
    <g transform="translate(-394 -7320)">
      <circle id="Ellipse_173-14" data-name="Ellipse 173" class="cls-3" cx="2.5" cy="2.5" r="2.5" transform="translate(719 7320)"/>
    </g>
    <g transform="translate(-369 -7320)">
      <circle id="Ellipse_173-15" data-name="Ellipse 173" class="cls-3" cx="2.5" cy="2.5" r="2.5" transform="translate(719 7320)"/>
    </g>
    <g transform="translate(-344 -7320)">
      <circle id="Ellipse_173-16" data-name="Ellipse 173" class="cls-3" cx="2.5" cy="2.5" r="2.5" transform="translate(719 7320)"/>
    </g>
    <g transform="translate(-719 -7295)">
      <circle id="Ellipse_173-17" data-name="Ellipse 173" class="cls-3" cx="2.5" cy="2.5" r="2.5" transform="translate(719 7320)"/>
    </g>
    <g transform="translate(-694 -7295)">
      <circle id="Ellipse_173-18" data-name="Ellipse 173" class="cls-3" cx="2.5" cy="2.5" r="2.5" transform="translate(719 7320)"/>
    </g>
    <g transform="translate(-669 -7295)">
      <circle id="Ellipse_173-19" data-name="Ellipse 173" class="cls-3" cx="2.5" cy="2.5" r="2.5" transform="translate(719 7320)"/>
    </g>
    <g transform="translate(-644 -7295)">
      <circle id="Ellipse_173-20" data-name="Ellipse 173" class="cls-3" cx="2.5" cy="2.5" r="2.5" transform="translate(719 7320)"/>
    </g>
    <g transform="translate(-619 -7295)">
      <circle id="Ellipse_173-21" data-name="Ellipse 173" class="cls-3" cx="2.5" cy="2.5" r="2.5" transform="translate(719 7320)"/>
    </g>
    <g transform="translate(-594 -7295)">
      <circle id="Ellipse_173-22" data-name="Ellipse 173" class="cls-3" cx="2.5" cy="2.5" r="2.5" transform="translate(719 7320)"/>
    </g>
    <g transform="translate(-569 -7295)">
      <circle id="Ellipse_173-23" data-name="Ellipse 173" class="cls-3" cx="2.5" cy="2.5" r="2.5" transform="translate(719 7320)"/>
    </g>
    <g transform="translate(-544 -7295)">
      <circle id="Ellipse_173-24" data-name="Ellipse 173" class="cls-3" cx="2.5" cy="2.5" r="2.5" transform="translate(719 7320)"/>
    </g>
    <g transform="translate(-519 -7295)">
      <circle id="Ellipse_173-25" data-name="Ellipse 173" class="cls-3" cx="2.5" cy="2.5" r="2.5" transform="translate(719 7320)"/>
    </g>
    <g transform="translate(-494 -7295)">
      <circle id="Ellipse_173-26" data-name="Ellipse 173" class="cls-3" cx="2.5" cy="2.5" r="2.5" transform="translate(719 7320)"/>
    </g>
    <g transform="translate(-469 -7295)">
      <circle id="Ellipse_173-27" data-name="Ellipse 173" class="cls-3" cx="2.5" cy="2.5" r="2.5" transform="translate(719 7320)"/>
    </g>
    <g transform="translate(-444 -7295)">
      <circle id="Ellipse_173-28" data-name="Ellipse 173" class="cls-3" cx="2.5" cy="2.5" r="2.5" transform="translate(719 7320)"/>
    </g>
    <g transform="translate(-419 -7295)">
      <circle id="Ellipse_173-29" data-name="Ellipse 173" class="cls-3" cx="2.5" cy="2.5" r="2.5" transform="translate(719 7320)"/>
    </g>
    <g transform="translate(-394 -7295)">
      <circle id="Ellipse_173-30" data-name="Ellipse 173" class="cls-3" cx="2.5" cy="2.5" r="2.5" transform="translate(719 7320)"/>
    </g>
    <g transform="translate(-369 -7295)">
      <circle id="Ellipse_173-31" data-name="Ellipse 173" class="cls-3" cx="2.5" cy="2.5" r="2.5" transform="translate(719 7320)"/>
    </g>
    <g transform="translate(-344 -7295)">
      <circle id="Ellipse_173-32" data-name="Ellipse 173" class="cls-3" cx="2.5" cy="2.5" r="2.5" transform="translate(719 7320)"/>
    </g>
    <g transform="translate(-719 -7270)">
      <circle id="Ellipse_173-33" data-name="Ellipse 173" class="cls-3" cx="2.5" cy="2.5" r="2.5" transform="translate(719 7320)"/>
    </g>
    <g transform="translate(-694 -7270)">
      <circle id="Ellipse_173-34" data-name="Ellipse 173" class="cls-3" cx="2.5" cy="2.5" r="2.5" transform="translate(719 7320)"/>
    </g>
    <g transform="translate(-669 -7270)">
      <circle id="Ellipse_173-35" data-name="Ellipse 173" class="cls-3" cx="2.5" cy="2.5" r="2.5" transform="translate(719 7320)"/>
    </g>
    <g transform="translate(-644 -7270)">
      <circle id="Ellipse_173-36" data-name="Ellipse 173" class="cls-3" cx="2.5" cy="2.5" r="2.5" transform="translate(719 7320)"/>
    </g>
    <g transform="translate(-619 -7270)">
      <circle id="Ellipse_173-37" data-name="Ellipse 173" class="cls-3" cx="2.5" cy="2.5" r="2.5" transform="translate(719 7320)"/>
    </g>
    <g transform="translate(-594 -7270)">
      <circle id="Ellipse_173-38" data-name="Ellipse 173" class="cls-3" cx="2.5" cy="2.5" r="2.5" transform="translate(719 7320)"/>
    </g>
    <g transform="translate(-569 -7270)">
      <circle id="Ellipse_173-39" data-name="Ellipse 173" class="cls-3" cx="2.5" cy="2.5" r="2.5" transform="translate(719 7320)"/>
    </g>
    <g transform="translate(-544 -7270)">
      <circle id="Ellipse_173-40" data-name="Ellipse 173" class="cls-3" cx="2.5" cy="2.5" r="2.5" transform="translate(719 7320)"/>
    </g>
    <g transform="translate(-519 -7270)">
      <circle id="Ellipse_173-41" data-name="Ellipse 173" class="cls-3" cx="2.5" cy="2.5" r="2.5" transform="translate(719 7320)"/>
    </g>
    <g transform="translate(-494 -7270)">
      <circle id="Ellipse_173-42" data-name="Ellipse 173" class="cls-3" cx="2.5" cy="2.5" r="2.5" transform="translate(719 7320)"/>
    </g>
    <g transform="translate(-469 -7270)">
      <circle id="Ellipse_173-43" data-name="Ellipse 173" class="cls-3" cx="2.5" cy="2.5" r="2.5" transform="translate(719 7320)"/>
    </g>
    <g transform="translate(-444 -7270)">
      <circle id="Ellipse_173-44" data-name="Ellipse 173" class="cls-3" cx="2.5" cy="2.5" r="2.5" transform="translate(719 7320)"/>
    </g>
    <g transform="translate(-419 -7270)">
      <circle id="Ellipse_173-45" data-name="Ellipse 173" class="cls-3" cx="2.5" cy="2.5" r="2.5" transform="translate(719 7320)"/>
    </g>
    <g transform="translate(-394 -7270)">
      <circle id="Ellipse_173-46" data-name="Ellipse 173" class="cls-3" cx="2.5" cy="2.5" r="2.5" transform="translate(719 7320)"/>
    </g>
    <g transform="translate(-369 -7270)">
      <circle id="Ellipse_173-47" data-name="Ellipse 173" class="cls-3" cx="2.5" cy="2.5" r="2.5" transform="translate(719 7320)"/>
    </g>
    <g transform="translate(-344 -7270)">
      <circle id="Ellipse_173-48" data-name="Ellipse 173" class="cls-3" cx="2.5" cy="2.5" r="2.5" transform="translate(719 7320)"/>
    </g>
    <g transform="translate(-719 -7245)">
      <circle id="Ellipse_173-49" data-name="Ellipse 173" class="cls-3" cx="2.5" cy="2.5" r="2.5" transform="translate(719 7320)"/>
    </g>
    <g transform="translate(-694 -7245)">
      <circle id="Ellipse_173-50" data-name="Ellipse 173" class="cls-3" cx="2.5" cy="2.5" r="2.5" transform="translate(719 7320)"/>
    </g>
    <g transform="translate(-669 -7245)">
      <circle id="Ellipse_173-51" data-name="Ellipse 173" class="cls-3" cx="2.5" cy="2.5" r="2.5" transform="translate(719 7320)"/>
    </g>
    <g transform="translate(-644 -7245)">
      <circle id="Ellipse_173-52" data-name="Ellipse 173" class="cls-3" cx="2.5" cy="2.5" r="2.5" transform="translate(719 7320)"/>
    </g>
    <g transform="translate(-619 -7245)">
      <circle id="Ellipse_173-53" data-name="Ellipse 173" class="cls-3" cx="2.5" cy="2.5" r="2.5" transform="translate(719 7320)"/>
    </g>
    <g transform="translate(-594 -7245)">
      <circle id="Ellipse_173-54" data-name="Ellipse 173" class="cls-3" cx="2.5" cy="2.5" r="2.5" transform="translate(719 7320)"/>
    </g>
    <g transform="translate(-569 -7245)">
      <circle id="Ellipse_173-55" data-name="Ellipse 173" class="cls-3" cx="2.5" cy="2.5" r="2.5" transform="translate(719 7320)"/>
    </g>
    <g transform="translate(-544 -7245)">
      <circle id="Ellipse_173-56" data-name="Ellipse 173" class="cls-3" cx="2.5" cy="2.5" r="2.5" transform="translate(719 7320)"/>
    </g>
    <g transform="translate(-519 -7245)">
      <circle id="Ellipse_173-57" data-name="Ellipse 173" class="cls-3" cx="2.5" cy="2.5" r="2.5" transform="translate(719 7320)"/>
    </g>
    <g transform="translate(-494 -7245)">
      <circle id="Ellipse_173-58" data-name="Ellipse 173" class="cls-3" cx="2.5" cy="2.5" r="2.5" transform="translate(719 7320)"/>
    </g>
    <g transform="translate(-469 -7245)">
      <circle id="Ellipse_173-59" data-name="Ellipse 173" class="cls-3" cx="2.5" cy="2.5" r="2.5" transform="translate(719 7320)"/>
    </g>
    <g transform="translate(-444 -7245)">
      <circle id="Ellipse_173-60" data-name="Ellipse 173" class="cls-3" cx="2.5" cy="2.5" r="2.5" transform="translate(719 7320)"/>
    </g>
    <g transform="translate(-419 -7245)">
      <circle id="Ellipse_173-61" data-name="Ellipse 173" class="cls-3" cx="2.5" cy="2.5" r="2.5" transform="translate(719 7320)"/>
    </g>
    <g transform="translate(-394 -7245)">
      <circle id="Ellipse_173-62" data-name="Ellipse 173" class="cls-3" cx="2.5" cy="2.5" r="2.5" transform="translate(719 7320)"/>
    </g>
    <g transform="translate(-369 -7245)">
      <circle id="Ellipse_173-63" data-name="Ellipse 173" class="cls-3" cx="2.5" cy="2.5" r="2.5" transform="translate(719 7320)"/>
    </g>
    <g transform="translate(-344 -7245)">
      <circle id="Ellipse_173-64" data-name="Ellipse 173" class="cls-3" cx="2.5" cy="2.5" r="2.5" transform="translate(719 7320)"/>
    </g>
    <g transform="translate(-719 -7220)">
      <circle id="Ellipse_173-65" data-name="Ellipse 173" class="cls-3" cx="2.5" cy="2.5" r="2.5" transform="translate(719 7320)"/>
    </g>
    <g transform="translate(-694 -7220)">
      <circle id="Ellipse_173-66" data-name="Ellipse 173" class="cls-3" cx="2.5" cy="2.5" r="2.5" transform="translate(719 7320)"/>
    </g>
    <g transform="translate(-669 -7220)">
      <circle id="Ellipse_173-67" data-name="Ellipse 173" class="cls-3" cx="2.5" cy="2.5" r="2.5" transform="translate(719 7320)"/>
    </g>
    <g transform="translate(-644 -7220)">
      <circle id="Ellipse_173-68" data-name="Ellipse 173" class="cls-3" cx="2.5" cy="2.5" r="2.5" transform="translate(719 7320)"/>
    </g>
    <g transform="translate(-619 -7220)">
      <circle id="Ellipse_173-69" data-name="Ellipse 173" class="cls-3" cx="2.5" cy="2.5" r="2.5" transform="translate(719 7320)"/>
    </g>
    <g transform="translate(-594 -7220)">
      <circle id="Ellipse_173-70" data-name="Ellipse 173" class="cls-3" cx="2.5" cy="2.5" r="2.5" transform="translate(719 7320)"/>
    </g>
    <g transform="translate(-569 -7220)">
      <circle id="Ellipse_173-71" data-name="Ellipse 173" class="cls-3" cx="2.5" cy="2.5" r="2.5" transform="translate(719 7320)"/>
    </g>
    <g transform="translate(-544 -7220)">
      <circle id="Ellipse_173-72" data-name="Ellipse 173" class="cls-3" cx="2.5" cy="2.5" r="2.5" transform="translate(719 7320)"/>
    </g>
    <g transform="translate(-519 -7220)">
      <circle id="Ellipse_173-73" data-name="Ellipse 173" class="cls-3" cx="2.5" cy="2.5" r="2.5" transform="translate(719 7320)"/>
    </g>
    <g transform="translate(-494 -7220)">
      <circle id="Ellipse_173-74" data-name="Ellipse 173" class="cls-3" cx="2.5" cy="2.5" r="2.5" transform="translate(719 7320)"/>
    </g>
    <g transform="translate(-469 -7220)">
      <circle id="Ellipse_173-75" data-name="Ellipse 173" class="cls-3" cx="2.5" cy="2.5" r="2.5" transform="translate(719 7320)"/>
    </g>
    <g transform="translate(-444 -7220)">
      <circle id="Ellipse_173-76" data-name="Ellipse 173" class="cls-3" cx="2.5" cy="2.5" r="2.5" transform="translate(719 7320)"/>
    </g>
    <g transform="translate(-419 -7220)">
      <circle id="Ellipse_173-77" data-name="Ellipse 173" class="cls-3" cx="2.5" cy="2.5" r="2.5" transform="translate(719 7320)"/>
    </g>
    <g transform="translate(-394 -7220)">
      <circle id="Ellipse_173-78" data-name="Ellipse 173" class="cls-3" cx="2.5" cy="2.5" r="2.5" transform="translate(719 7320)"/>
    </g>
    <g transform="translate(-369 -7220)">
      <circle id="Ellipse_173-79" data-name="Ellipse 173" class="cls-3" cx="2.5" cy="2.5" r="2.5" transform="translate(719 7320)"/>
    </g>
    <g transform="translate(-344 -7220)">
      <circle id="Ellipse_173-80" data-name="Ellipse 173" class="cls-3" cx="2.5" cy="2.5" r="2.5" transform="translate(719 7320)"/>
    </g>
    <g transform="translate(-719 -7195)">
      <circle id="Ellipse_173-81" data-name="Ellipse 173" class="cls-3" cx="2.5" cy="2.5" r="2.5" transform="translate(719 7320)"/>
    </g>
    <g transform="translate(-694 -7195)">
      <circle id="Ellipse_173-82" data-name="Ellipse 173" class="cls-3" cx="2.5" cy="2.5" r="2.5" transform="translate(719 7320)"/>
    </g>
    <g transform="translate(-669 -7195)">
      <circle id="Ellipse_173-83" data-name="Ellipse 173" class="cls-3" cx="2.5" cy="2.5" r="2.5" transform="translate(719 7320)"/>
    </g>
    <g transform="translate(-644 -7195)">
      <circle id="Ellipse_173-84" data-name="Ellipse 173" class="cls-3" cx="2.5" cy="2.5" r="2.5" transform="translate(719 7320)"/>
    </g>
    <g transform="translate(-619 -7195)">
      <circle id="Ellipse_173-85" data-name="Ellipse 173" class="cls-3" cx="2.5" cy="2.5" r="2.5" transform="translate(719 7320)"/>
    </g>
    <g transform="translate(-594 -7195)">
      <circle id="Ellipse_173-86" data-name="Ellipse 173" class="cls-3" cx="2.5" cy="2.5" r="2.5" transform="translate(719 7320)"/>
    </g>
    <g transform="translate(-569 -7195)">
      <circle id="Ellipse_173-87" data-name="Ellipse 173" class="cls-3" cx="2.5" cy="2.5" r="2.5" transform="translate(719 7320)"/>
    </g>
    <g transform="translate(-544 -7195)">
      <circle id="Ellipse_173-88" data-name="Ellipse 173" class="cls-3" cx="2.5" cy="2.5" r="2.5" transform="translate(719 7320)"/>
    </g>
    <g transform="translate(-519 -7195)">
      <circle id="Ellipse_173-89" data-name="Ellipse 173" class="cls-3" cx="2.5" cy="2.5" r="2.5" transform="translate(719 7320)"/>
    </g>
    <g transform="translate(-494 -7195)">
      <circle id="Ellipse_173-90" data-name="Ellipse 173" class="cls-3" cx="2.5" cy="2.5" r="2.5" transform="translate(719 7320)"/>
    </g>
    <g transform="translate(-469 -7195)">
      <circle id="Ellipse_173-91" data-name="Ellipse 173" class="cls-3" cx="2.5" cy="2.5" r="2.5" transform="translate(719 7320)"/>
    </g>
    <g transform="translate(-444 -7195)">
      <circle id="Ellipse_173-92" data-name="Ellipse 173" class="cls-3" cx="2.5" cy="2.5" r="2.5" transform="translate(719 7320)"/>
    </g>
    <g transform="translate(-419 -7195)">
      <circle id="Ellipse_173-93" data-name="Ellipse 173" class="cls-3" cx="2.5" cy="2.5" r="2.5" transform="translate(719 7320)"/>
    </g>
    <g transform="translate(-394 -7195)">
      <circle id="Ellipse_173-94" data-name="Ellipse 173" class="cls-3" cx="2.5" cy="2.5" r="2.5" transform="translate(719 7320)"/>
    </g>
    <g transform="translate(-369 -7195)">
      <circle id="Ellipse_173-95" data-name="Ellipse 173" class="cls-3" cx="2.5" cy="2.5" r="2.5" transform="translate(719 7320)"/>
    </g>
    <g transform="translate(-344 -7195)">
      <circle id="Ellipse_173-96" data-name="Ellipse 173" class="cls-3" cx="2.5" cy="2.5" r="2.5" transform="translate(719 7320)"/>
    </g>
    <g transform="translate(-719 -7170)">
      <circle id="Ellipse_173-97" data-name="Ellipse 173" class="cls-3" cx="2.5" cy="2.5" r="2.5" transform="translate(719 7320)"/>
    </g>
    <g transform="translate(-694 -7170)">
      <circle id="Ellipse_173-98" data-name="Ellipse 173" class="cls-3" cx="2.5" cy="2.5" r="2.5" transform="translate(719 7320)"/>
    </g>
    <g transform="translate(-669 -7170)">
      <circle id="Ellipse_173-99" data-name="Ellipse 173" class="cls-3" cx="2.5" cy="2.5" r="2.5" transform="translate(719 7320)"/>
    </g>
    <g transform="translate(-644 -7170)">
      <circle id="Ellipse_173-100" data-name="Ellipse 173" class="cls-3" cx="2.5" cy="2.5" r="2.5" transform="translate(719 7320)"/>
    </g>
    <g transform="translate(-619 -7170)">
      <circle id="Ellipse_173-101" data-name="Ellipse 173" class="cls-3" cx="2.5" cy="2.5" r="2.5" transform="translate(719 7320)"/>
    </g>
    <g transform="translate(-594 -7170)">
      <circle id="Ellipse_173-102" data-name="Ellipse 173" class="cls-3" cx="2.5" cy="2.5" r="2.5" transform="translate(719 7320)"/>
    </g>
    <g transform="translate(-569 -7170)">
      <circle id="Ellipse_173-103" data-name="Ellipse 173" class="cls-3" cx="2.5" cy="2.5" r="2.5" transform="translate(719 7320)"/>
    </g>
    <g transform="translate(-544 -7170)">
      <circle id="Ellipse_173-104" data-name="Ellipse 173" class="cls-3" cx="2.5" cy="2.5" r="2.5" transform="translate(719 7320)"/>
    </g>
    <g transform="translate(-519 -7170)">
      <circle id="Ellipse_173-105" data-name="Ellipse 173" class="cls-3" cx="2.5" cy="2.5" r="2.5" transform="translate(719 7320)"/>
    </g>
    <g transform="translate(-494 -7170)">
      <circle id="Ellipse_173-106" data-name="Ellipse 173" class="cls-3" cx="2.5" cy="2.5" r="2.5" transform="translate(719 7320)"/>
    </g>
    <g transform="translate(-469 -7170)">
      <circle id="Ellipse_173-107" data-name="Ellipse 173" class="cls-3" cx="2.5" cy="2.5" r="2.5" transform="translate(719 7320)"/>
    </g>
    <g transform="translate(-444 -7170)">
      <circle id="Ellipse_173-108" data-name="Ellipse 173" class="cls-3" cx="2.5" cy="2.5" r="2.5" transform="translate(719 7320)"/>
    </g>
    <g transform="translate(-419 -7170)">
      <circle id="Ellipse_173-109" data-name="Ellipse 173" class="cls-3" cx="2.5" cy="2.5" r="2.5" transform="translate(719 7320)"/>
    </g>
    <g transform="translate(-394 -7170)">
      <circle id="Ellipse_173-110" data-name="Ellipse 173" class="cls-3" cx="2.5" cy="2.5" r="2.5" transform="translate(719 7320)"/>
    </g>
    <g transform="translate(-369 -7170)">
      <circle id="Ellipse_173-111" data-name="Ellipse 173" class="cls-3" cx="2.5" cy="2.5" r="2.5" transform="translate(719 7320)"/>
    </g>
    <g transform="translate(-344 -7170)">
      <circle id="Ellipse_173-112" data-name="Ellipse 173" class="cls-3" cx="2.5" cy="2.5" r="2.5" transform="translate(719 7320)"/>
    </g>
    <g transform="translate(-719 -7145)">
      <circle id="Ellipse_173-113" data-name="Ellipse 173" class="cls-3" cx="2.5" cy="2.5" r="2.5" transform="translate(719 7320)"/>
    </g>
    <g transform="translate(-694 -7145)">
      <circle id="Ellipse_173-114" data-name="Ellipse 173" class="cls-3" cx="2.5" cy="2.5" r="2.5" transform="translate(719 7320)"/>
    </g>
    <g transform="translate(-669 -7145)">
      <circle id="Ellipse_173-115" data-name="Ellipse 173" class="cls-3" cx="2.5" cy="2.5" r="2.5" transform="translate(719 7320)"/>
    </g>
    <g transform="translate(-644 -7145)">
      <circle id="Ellipse_173-116" data-name="Ellipse 173" class="cls-3" cx="2.5" cy="2.5" r="2.5" transform="translate(719 7320)"/>
    </g>
    <g transform="translate(-619 -7145)">
      <circle id="Ellipse_173-117" data-name="Ellipse 173" class="cls-3" cx="2.5" cy="2.5" r="2.5" transform="translate(719 7320)"/>
    </g>
    <g transform="translate(-594 -7145)">
      <circle id="Ellipse_173-118" data-name="Ellipse 173" class="cls-3" cx="2.5" cy="2.5" r="2.5" transform="translate(719 7320)"/>
    </g>
    <g transform="translate(-569 -7145)">
      <circle id="Ellipse_173-119" data-name="Ellipse 173" class="cls-3" cx="2.5" cy="2.5" r="2.5" transform="translate(719 7320)"/>
    </g>
    <g transform="translate(-544 -7145)">
      <circle id="Ellipse_173-120" data-name="Ellipse 173" class="cls-3" cx="2.5" cy="2.5" r="2.5" transform="translate(719 7320)"/>
    </g>
    <g transform="translate(-519 -7145)">
      <circle id="Ellipse_173-121" data-name="Ellipse 173" class="cls-3" cx="2.5" cy="2.5" r="2.5" transform="translate(719 7320)"/>
    </g>
    <g transform="translate(-494 -7145)">
      <circle id="Ellipse_173-122" data-name="Ellipse 173" class="cls-3" cx="2.5" cy="2.5" r="2.5" transform="translate(719 7320)"/>
    </g>
    <g transform="translate(-469 -7145)">
      <circle id="Ellipse_173-123" data-name="Ellipse 173" class="cls-3" cx="2.5" cy="2.5" r="2.5" transform="translate(719 7320)"/>
    </g>
    <g transform="translate(-444 -7145)">
      <circle id="Ellipse_173-124" data-name="Ellipse 173" class="cls-3" cx="2.5" cy="2.5" r="2.5" transform="translate(719 7320)"/>
    </g>
    <g transform="translate(-419 -7145)">
      <circle id="Ellipse_173-125" data-name="Ellipse 173" class="cls-3" cx="2.5" cy="2.5" r="2.5" transform="translate(719 7320)"/>
    </g>
    <g transform="translate(-394 -7145)">
      <circle id="Ellipse_173-126" data-name="Ellipse 173" class="cls-3" cx="2.5" cy="2.5" r="2.5" transform="translate(719 7320)"/>
    </g>
    <g transform="translate(-369 -7145)">
      <circle id="Ellipse_173-127" data-name="Ellipse 173" class="cls-3" cx="2.5" cy="2.5" r="2.5" transform="translate(719 7320)"/>
    </g>
    <g transform="translate(-344 -7145)">
      <circle id="Ellipse_173-128" data-name="Ellipse 173" class="cls-3" cx="2.5" cy="2.5" r="2.5" transform="translate(719 7320)"/>
    </g>
    <g transform="translate(-719 -7120)">
      <circle id="Ellipse_173-129" data-name="Ellipse 173" class="cls-3" cx="2.5" cy="2.5" r="2.5" transform="translate(719 7320)"/>
    </g>
    <g transform="translate(-694 -7120)">
      <circle id="Ellipse_173-130" data-name="Ellipse 173" class="cls-3" cx="2.5" cy="2.5" r="2.5" transform="translate(719 7320)"/>
    </g>
    <g transform="translate(-669 -7120)">
      <circle id="Ellipse_173-131" data-name="Ellipse 173" class="cls-3" cx="2.5" cy="2.5" r="2.5" transform="translate(719 7320)"/>
    </g>
    <g transform="translate(-644 -7120)">
      <circle id="Ellipse_173-132" data-name="Ellipse 173" class="cls-3" cx="2.5" cy="2.5" r="2.5" transform="translate(719 7320)"/>
    </g>
    <g transform="translate(-619 -7120)">
      <circle id="Ellipse_173-133" data-name="Ellipse 173" class="cls-3" cx="2.5" cy="2.5" r="2.5" transform="translate(719 7320)"/>
    </g>
    <g transform="translate(-594 -7120)">
      <circle id="Ellipse_173-134" data-name="Ellipse 173" class="cls-3" cx="2.5" cy="2.5" r="2.5" transform="translate(719 7320)"/>
    </g>
    <g transform="translate(-569 -7120)">
      <circle id="Ellipse_173-135" data-name="Ellipse 173" class="cls-3" cx="2.5" cy="2.5" r="2.5" transform="translate(719 7320)"/>
    </g>
    <g transform="translate(-544 -7120)">
      <circle id="Ellipse_173-136" data-name="Ellipse 173" class="cls-3" cx="2.5" cy="2.5" r="2.5" transform="translate(719 7320)"/>
    </g>
    <g transform="translate(-519 -7120)">
      <circle id="Ellipse_173-137" data-name="Ellipse 173" class="cls-3" cx="2.5" cy="2.5" r="2.5" transform="translate(719 7320)"/>
    </g>
    <g transform="translate(-494 -7120)">
      <circle id="Ellipse_173-138" data-name="Ellipse 173" class="cls-3" cx="2.5" cy="2.5" r="2.5" transform="translate(719 7320)"/>
    </g>
    <g transform="translate(-469 -7120)">
      <circle id="Ellipse_173-139" data-name="Ellipse 173" class="cls-3" cx="2.5" cy="2.5" r="2.5" transform="translate(719 7320)"/>
    </g>
    <g transform="translate(-444 -7120)">
      <circle id="Ellipse_173-140" data-name="Ellipse 173" class="cls-3" cx="2.5" cy="2.5" r="2.5" transform="translate(719 7320)"/>
    </g>
    <g transform="translate(-419 -7120)">
      <circle id="Ellipse_173-141" data-name="Ellipse 173" class="cls-3" cx="2.5" cy="2.5" r="2.5" transform="translate(719 7320)"/>
    </g>
    <g transform="translate(-394 -7120)">
      <circle id="Ellipse_173-142" data-name="Ellipse 173" class="cls-3" cx="2.5" cy="2.5" r="2.5" transform="translate(719 7320)"/>
    </g>
    <g transform="translate(-369 -7120)">
      <circle id="Ellipse_173-143" data-name="Ellipse 173" class="cls-3" cx="2.5" cy="2.5" r="2.5" transform="translate(719 7320)"/>
    </g>
    <g transform="translate(-344 -7120)">
      <circle id="Ellipse_173-144" data-name="Ellipse 173" class="cls-3" cx="2.5" cy="2.5" r="2.5" transform="translate(719 7320)"/>
    </g>
    <g transform="translate(-719 -7095)">
      <circle id="Ellipse_173-145" data-name="Ellipse 173" class="cls-3" cx="2.5" cy="2.5" r="2.5" transform="translate(719 7320)"/>
    </g>
    <g transform="translate(-694 -7095)">
      <circle id="Ellipse_173-146" data-name="Ellipse 173" class="cls-3" cx="2.5" cy="2.5" r="2.5" transform="translate(719 7320)"/>
    </g>
    <g transform="translate(-669 -7095)">
      <circle id="Ellipse_173-147" data-name="Ellipse 173" class="cls-3" cx="2.5" cy="2.5" r="2.5" transform="translate(719 7320)"/>
    </g>
    <g transform="translate(-644 -7095)">
      <circle id="Ellipse_173-148" data-name="Ellipse 173" class="cls-3" cx="2.5" cy="2.5" r="2.5" transform="translate(719 7320)"/>
    </g>
    <g transform="translate(-619 -7095)">
      <circle id="Ellipse_173-149" data-name="Ellipse 173" class="cls-3" cx="2.5" cy="2.5" r="2.5" transform="translate(719 7320)"/>
    </g>
    <g transform="translate(-594 -7095)">
      <circle id="Ellipse_173-150" data-name="Ellipse 173" class="cls-3" cx="2.5" cy="2.5" r="2.5" transform="translate(719 7320)"/>
    </g>
    <g transform="translate(-569 -7095)">
      <circle id="Ellipse_173-151" data-name="Ellipse 173" class="cls-3" cx="2.5" cy="2.5" r="2.5" transform="translate(719 7320)"/>
    </g>
    <g transform="translate(-544 -7095)">
      <circle id="Ellipse_173-152" data-name="Ellipse 173" class="cls-3" cx="2.5" cy="2.5" r="2.5" transform="translate(719 7320)"/>
    </g>
    <g transform="translate(-519 -7095)">
      <circle id="Ellipse_173-153" data-name="Ellipse 173" class="cls-3" cx="2.5" cy="2.5" r="2.5" transform="translate(719 7320)"/>
    </g>
    <g transform="translate(-494 -7095)">
      <circle id="Ellipse_173-154" data-name="Ellipse 173" class="cls-3" cx="2.5" cy="2.5" r="2.5" transform="translate(719 7320)"/>
    </g>
    <g transform="translate(-469 -7095)">
      <circle id="Ellipse_173-155" data-name="Ellipse 173" class="cls-3" cx="2.5" cy="2.5" r="2.5" transform="translate(719 7320)"/>
    </g>
    <g transform="translate(-444 -7095)">
      <circle id="Ellipse_173-156" data-name="Ellipse 173" class="cls-3" cx="2.5" cy="2.5" r="2.5" transform="translate(719 7320)"/>
    </g>
    <g transform="translate(-419 -7095)">
      <circle id="Ellipse_173-157" data-name="Ellipse 173" class="cls-3" cx="2.5" cy="2.5" r="2.5" transform="translate(719 7320)"/>
    </g>
    <g transform="translate(-394 -7095)">
      <circle id="Ellipse_173-158" data-name="Ellipse 173" class="cls-3" cx="2.5" cy="2.5" r="2.5" transform="translate(719 7320)"/>
    </g>
    <g transform="translate(-369 -7095)">
      <circle id="Ellipse_173-159" data-name="Ellipse 173" class="cls-3" cx="2.5" cy="2.5" r="2.5" transform="translate(719 7320)"/>
    </g>
    <g transform="translate(-344 -7095)">
      <circle id="Ellipse_173-160" data-name="Ellipse 173" class="cls-3" cx="2.5" cy="2.5" r="2.5" transform="translate(719 7320)"/>
    </g>
    <g transform="translate(-719 -7070)">
      <circle id="Ellipse_173-161" data-name="Ellipse 173" class="cls-3" cx="2.5" cy="2.5" r="2.5" transform="translate(719 7320)"/>
    </g>
    <g transform="translate(-694 -7070)">
      <circle id="Ellipse_173-162" data-name="Ellipse 173" class="cls-3" cx="2.5" cy="2.5" r="2.5" transform="translate(719 7320)"/>
    </g>
    <g transform="translate(-669 -7070)">
      <circle id="Ellipse_173-163" data-name="Ellipse 173" class="cls-3" cx="2.5" cy="2.5" r="2.5" transform="translate(719 7320)"/>
    </g>
    <g transform="translate(-644 -7070)">
      <circle id="Ellipse_173-164" data-name="Ellipse 173" class="cls-3" cx="2.5" cy="2.5" r="2.5" transform="translate(719 7320)"/>
    </g>
    <g transform="translate(-619 -7070)">
      <circle id="Ellipse_173-165" data-name="Ellipse 173" class="cls-3" cx="2.5" cy="2.5" r="2.5" transform="translate(719 7320)"/>
    </g>
    <g transform="translate(-594 -7070)">
      <circle id="Ellipse_173-166" data-name="Ellipse 173" class="cls-3" cx="2.5" cy="2.5" r="2.5" transform="translate(719 7320)"/>
    </g>
    <g transform="translate(-569 -7070)">
      <circle id="Ellipse_173-167" data-name="Ellipse 173" class="cls-3" cx="2.5" cy="2.5" r="2.5" transform="translate(719 7320)"/>
    </g>
    <g transform="translate(-544 -7070)">
      <circle id="Ellipse_173-168" data-name="Ellipse 173" class="cls-3" cx="2.5" cy="2.5" r="2.5" transform="translate(719 7320)"/>
    </g>
    <g transform="translate(-519 -7070)">
      <circle id="Ellipse_173-169" data-name="Ellipse 173" class="cls-3" cx="2.5" cy="2.5" r="2.5" transform="translate(719 7320)"/>
    </g>
    <g transform="translate(-494 -7070)">
      <circle id="Ellipse_173-170" data-name="Ellipse 173" class="cls-3" cx="2.5" cy="2.5" r="2.5" transform="translate(719 7320)"/>
    </g>
    <g transform="translate(-469 -7070)">
      <circle id="Ellipse_173-171" data-name="Ellipse 173" class="cls-3" cx="2.5" cy="2.5" r="2.5" transform="translate(719 7320)"/>
    </g>
    <g transform="translate(-444 -7070)">
      <circle id="Ellipse_173-172" data-name="Ellipse 173" class="cls-3" cx="2.5" cy="2.5" r="2.5" transform="translate(719 7320)"/>
    </g>
    <g transform="translate(-419 -7070)">
      <circle id="Ellipse_173-173" data-name="Ellipse 173" class="cls-3" cx="2.5" cy="2.5" r="2.5" transform="translate(719 7320)"/>
    </g>
    <g transform="translate(-394 -7070)">
      <circle id="Ellipse_173-174" data-name="Ellipse 173" class="cls-3" cx="2.5" cy="2.5" r="2.5" transform="translate(719 7320)"/>
    </g>
    <g transform="translate(-369 -7070)">
      <circle id="Ellipse_173-175" data-name="Ellipse 173" class="cls-3" cx="2.5" cy="2.5" r="2.5" transform="translate(719 7320)"/>
    </g>
    <g transform="translate(-344 -7070)">
      <circle id="Ellipse_173-176" data-name="Ellipse 173" class="cls-3" cx="2.5" cy="2.5" r="2.5" transform="translate(719 7320)"/>
    </g>
    <g transform="translate(-719 -7045)">
      <circle id="Ellipse_173-177" data-name="Ellipse 173" class="cls-3" cx="2.5" cy="2.5" r="2.5" transform="translate(719 7320)"/>
    </g>
    <g transform="translate(-694 -7045)">
      <circle id="Ellipse_173-178" data-name="Ellipse 173" class="cls-3" cx="2.5" cy="2.5" r="2.5" transform="translate(719 7320)"/>
    </g>
    <g transform="translate(-669 -7045)">
      <circle id="Ellipse_173-179" data-name="Ellipse 173" class="cls-3" cx="2.5" cy="2.5" r="2.5" transform="translate(719 7320)"/>
    </g>
    <g transform="translate(-644 -7045)">
      <circle id="Ellipse_173-180" data-name="Ellipse 173" class="cls-3" cx="2.5" cy="2.5" r="2.5" transform="translate(719 7320)"/>
    </g>
    <g transform="translate(-619 -7045)">
      <circle id="Ellipse_173-181" data-name="Ellipse 173" class="cls-3" cx="2.5" cy="2.5" r="2.5" transform="translate(719 7320)"/>
    </g>
    <g transform="translate(-594 -7045)">
      <circle id="Ellipse_173-182" data-name="Ellipse 173" class="cls-3" cx="2.5" cy="2.5" r="2.5" transform="translate(719 7320)"/>
    </g>
    <g transform="translate(-569 -7045)">
      <circle id="Ellipse_173-183" data-name="Ellipse 173" class="cls-3" cx="2.5" cy="2.5" r="2.5" transform="translate(719 7320)"/>
    </g>
    <g transform="translate(-544 -7045)">
      <circle id="Ellipse_173-184" data-name="Ellipse 173" class="cls-3" cx="2.5" cy="2.5" r="2.5" transform="translate(719 7320)"/>
    </g>
    <g transform="translate(-519 -7045)">
      <circle id="Ellipse_173-185" data-name="Ellipse 173" class="cls-3" cx="2.5" cy="2.5" r="2.5" transform="translate(719 7320)"/>
    </g>
    <g transform="translate(-494 -7045)">
      <circle id="Ellipse_173-186" data-name="Ellipse 173" class="cls-3" cx="2.5" cy="2.5" r="2.5" transform="translate(719 7320)"/>
    </g>
    <g transform="translate(-469 -7045)">
      <circle id="Ellipse_173-187" data-name="Ellipse 173" class="cls-3" cx="2.5" cy="2.5" r="2.5" transform="translate(719 7320)"/>
    </g>
    <g transform="translate(-444 -7045)">
      <circle id="Ellipse_173-188" data-name="Ellipse 173" class="cls-3" cx="2.5" cy="2.5" r="2.5" transform="translate(719 7320)"/>
    </g>
    <g transform="translate(-419 -7045)">
      <circle id="Ellipse_173-189" data-name="Ellipse 173" class="cls-3" cx="2.5" cy="2.5" r="2.5" transform="translate(719 7320)"/>
    </g>
    <g transform="translate(-394 -7045)">
      <circle id="Ellipse_173-190" data-name="Ellipse 173" class="cls-3" cx="2.5" cy="2.5" r="2.5" transform="translate(719 7320)"/>
    </g>
    <g transform="translate(-369 -7045)">
      <circle id="Ellipse_173-191" data-name="Ellipse 173" class="cls-3" cx="2.5" cy="2.5" r="2.5" transform="translate(719 7320)"/>
    </g>
    <g transform="translate(-344 -7045)">
      <circle id="Ellipse_173-192" data-name="Ellipse 173" class="cls-3" cx="2.5" cy="2.5" r="2.5" transform="translate(719 7320)"/>
    </g>
    <g transform="translate(-719 -7020)">
      <circle id="Ellipse_173-193" data-name="Ellipse 173" class="cls-3" cx="2.5" cy="2.5" r="2.5" transform="translate(719 7320)"/>
    </g>
    <g transform="translate(-694 -7020)">
      <circle id="Ellipse_173-194" data-name="Ellipse 173" class="cls-3" cx="2.5" cy="2.5" r="2.5" transform="translate(719 7320)"/>
    </g>
    <g transform="translate(-669 -7020)">
      <circle id="Ellipse_173-195" data-name="Ellipse 173" class="cls-3" cx="2.5" cy="2.5" r="2.5" transform="translate(719 7320)"/>
    </g>
    <g transform="translate(-644 -7020)">
      <circle id="Ellipse_173-196" data-name="Ellipse 173" class="cls-3" cx="2.5" cy="2.5" r="2.5" transform="translate(719 7320)"/>
    </g>
    <g transform="translate(-619 -7020)">
      <circle id="Ellipse_173-197" data-name="Ellipse 173" class="cls-3" cx="2.5" cy="2.5" r="2.5" transform="translate(719 7320)"/>
    </g>
    <g transform="translate(-594 -7020)">
      <circle id="Ellipse_173-198" data-name="Ellipse 173" class="cls-3" cx="2.5" cy="2.5" r="2.5" transform="translate(719 7320)"/>
    </g>
    <g transform="translate(-569 -7020)">
      <circle id="Ellipse_173-199" data-name="Ellipse 173" class="cls-3" cx="2.5" cy="2.5" r="2.5" transform="translate(719 7320)"/>
    </g>
    <g transform="translate(-544 -7020)">
      <circle id="Ellipse_173-200" data-name="Ellipse 173" class="cls-3" cx="2.5" cy="2.5" r="2.5" transform="translate(719 7320)"/>
    </g>
    <g transform="translate(-519 -7020)">
      <circle id="Ellipse_173-201" data-name="Ellipse 173" class="cls-3" cx="2.5" cy="2.5" r="2.5" transform="translate(719 7320)"/>
    </g>
    <g transform="translate(-494 -7020)">
      <circle id="Ellipse_173-202" data-name="Ellipse 173" class="cls-3" cx="2.5" cy="2.5" r="2.5" transform="translate(719 7320)"/>
    </g>
    <g transform="translate(-469 -7020)">
      <circle id="Ellipse_173-203" data-name="Ellipse 173" class="cls-3" cx="2.5" cy="2.5" r="2.5" transform="translate(719 7320)"/>
    </g>
    <g transform="translate(-444 -7020)">
      <circle id="Ellipse_173-204" data-name="Ellipse 173" class="cls-3" cx="2.5" cy="2.5" r="2.5" transform="translate(719 7320)"/>
    </g>
    <g transform="translate(-419 -7020)">
      <circle id="Ellipse_173-205" data-name="Ellipse 173" class="cls-3" cx="2.5" cy="2.5" r="2.5" transform="translate(719 7320)"/>
    </g>
    <g transform="translate(-394 -7020)">
      <circle id="Ellipse_173-206" data-name="Ellipse 173" class="cls-3" cx="2.5" cy="2.5" r="2.5" transform="translate(719 7320)"/>
    </g>
    <g transform="translate(-369 -7020)">
      <circle id="Ellipse_173-207" data-name="Ellipse 173" class="cls-3" cx="2.5" cy="2.5" r="2.5" transform="translate(719 7320)"/>
    </g>
    <g transform="translate(-344 -7020)">
      <circle id="Ellipse_173-208" data-name="Ellipse 173" class="cls-3" cx="2.5" cy="2.5" r="2.5" transform="translate(719 7320)"/>
    </g>
    <g transform="translate(-719 -6995)">
      <circle id="Ellipse_173-209" data-name="Ellipse 173" class="cls-3" cx="2.5" cy="2.5" r="2.5" transform="translate(719 7320)"/>
    </g>
    <g transform="translate(-694 -6995)">
      <circle id="Ellipse_173-210" data-name="Ellipse 173" class="cls-3" cx="2.5" cy="2.5" r="2.5" transform="translate(719 7320)"/>
    </g>
    <g transform="translate(-669 -6995)">
      <circle id="Ellipse_173-211" data-name="Ellipse 173" class="cls-3" cx="2.5" cy="2.5" r="2.5" transform="translate(719 7320)"/>
    </g>
    <g transform="translate(-644 -6995)">
      <circle id="Ellipse_173-212" data-name="Ellipse 173" class="cls-3" cx="2.5" cy="2.5" r="2.5" transform="translate(719 7320)"/>
    </g>
    <g transform="translate(-619 -6995)">
      <circle id="Ellipse_173-213" data-name="Ellipse 173" class="cls-3" cx="2.5" cy="2.5" r="2.5" transform="translate(719 7320)"/>
    </g>
    <g transform="translate(-594 -6995)">
      <circle id="Ellipse_173-214" data-name="Ellipse 173" class="cls-3" cx="2.5" cy="2.5" r="2.5" transform="translate(719 7320)"/>
    </g>
    <g transform="translate(-569 -6995)">
      <circle id="Ellipse_173-215" data-name="Ellipse 173" class="cls-3" cx="2.5" cy="2.5" r="2.5" transform="translate(719 7320)"/>
    </g>
    <g transform="translate(-544 -6995)">
      <circle id="Ellipse_173-216" data-name="Ellipse 173" class="cls-3" cx="2.5" cy="2.5" r="2.5" transform="translate(719 7320)"/>
    </g>
    <g transform="translate(-519 -6995)">
      <circle id="Ellipse_173-217" data-name="Ellipse 173" class="cls-3" cx="2.5" cy="2.5" r="2.5" transform="translate(719 7320)"/>
    </g>
    <g transform="translate(-494 -6995)">
      <circle id="Ellipse_173-218" data-name="Ellipse 173" class="cls-3" cx="2.5" cy="2.5" r="2.5" transform="translate(719 7320)"/>
    </g>
    <g transform="translate(-469 -6995)">
      <circle id="Ellipse_173-219" data-name="Ellipse 173" class="cls-3" cx="2.5" cy="2.5" r="2.5" transform="translate(719 7320)"/>
    </g>
    <g transform="translate(-444 -6995)">
      <circle id="Ellipse_173-220" data-name="Ellipse 173" class="cls-3" cx="2.5" cy="2.5" r="2.5" transform="translate(719 7320)"/>
    </g>
    <g transform="translate(-419 -6995)">
      <circle id="Ellipse_173-221" data-name="Ellipse 173" class="cls-3" cx="2.5" cy="2.5" r="2.5" transform="translate(719 7320)"/>
    </g>
    <g transform="translate(-394 -6995)">
      <circle id="Ellipse_173-222" data-name="Ellipse 173" class="cls-3" cx="2.5" cy="2.5" r="2.5" transform="translate(719 7320)"/>
    </g>
    <g transform="translate(-369 -6995)">
      <circle id="Ellipse_173-223" data-name="Ellipse 173" class="cls-3" cx="2.5" cy="2.5" r="2.5" transform="translate(719 7320)"/>
    </g>
    <g transform="translate(-344 -6995)">
      <circle id="Ellipse_173-224" data-name="Ellipse 173" class="cls-3" cx="2.5" cy="2.5" r="2.5" transform="translate(719 7320)"/>
    </g>
    <g transform="translate(-719 -6970)">
      <circle id="Ellipse_173-225" data-name="Ellipse 173" class="cls-3" cx="2.5" cy="2.5" r="2.5" transform="translate(719 7320)"/>
    </g>
    <g transform="translate(-694 -6970)">
      <circle id="Ellipse_173-226" data-name="Ellipse 173" class="cls-3" cx="2.5" cy="2.5" r="2.5" transform="translate(719 7320)"/>
    </g>
    <g transform="translate(-669 -6970)">
      <circle id="Ellipse_173-227" data-name="Ellipse 173" class="cls-3" cx="2.5" cy="2.5" r="2.5" transform="translate(719 7320)"/>
    </g>
    <g transform="translate(-644 -6970)">
      <circle id="Ellipse_173-228" data-name="Ellipse 173" class="cls-3" cx="2.5" cy="2.5" r="2.5" transform="translate(719 7320)"/>
    </g>
    <g transform="translate(-619 -6970)">
      <circle id="Ellipse_173-229" data-name="Ellipse 173" class="cls-3" cx="2.5" cy="2.5" r="2.5" transform="translate(719 7320)"/>
    </g>
    <g transform="translate(-594 -6970)">
      <circle id="Ellipse_173-230" data-name="Ellipse 173" class="cls-3" cx="2.5" cy="2.5" r="2.5" transform="translate(719 7320)"/>
    </g>
    <g transform="translate(-569 -6970)">
      <circle id="Ellipse_173-231" data-name="Ellipse 173" class="cls-3" cx="2.5" cy="2.5" r="2.5" transform="translate(719 7320)"/>
    </g>
    <g transform="translate(-544 -6970)">
      <circle id="Ellipse_173-232" data-name="Ellipse 173" class="cls-3" cx="2.5" cy="2.5" r="2.5" transform="translate(719 7320)"/>
    </g>
    <g transform="translate(-519 -6970)">
      <circle id="Ellipse_173-233" data-name="Ellipse 173" class="cls-3" cx="2.5" cy="2.5" r="2.5" transform="translate(719 7320)"/>
    </g>
    <g transform="translate(-494 -6970)">
      <circle id="Ellipse_173-234" data-name="Ellipse 173" class="cls-3" cx="2.5" cy="2.5" r="2.5" transform="translate(719 7320)"/>
    </g>
    <g transform="translate(-469 -6970)">
      <circle id="Ellipse_173-235" data-name="Ellipse 173" class="cls-3" cx="2.5" cy="2.5" r="2.5" transform="translate(719 7320)"/>
    </g>
    <g transform="translate(-444 -6970)">
      <circle id="Ellipse_173-236" data-name="Ellipse 173" class="cls-3" cx="2.5" cy="2.5" r="2.5" transform="translate(719 7320)"/>
    </g>
    <g transform="translate(-419 -6970)">
      <circle id="Ellipse_173-237" data-name="Ellipse 173" class="cls-3" cx="2.5" cy="2.5" r="2.5" transform="translate(719 7320)"/>
    </g>
    <g transform="translate(-394 -6970)">
      <circle id="Ellipse_173-238" data-name="Ellipse 173" class="cls-3" cx="2.5" cy="2.5" r="2.5" transform="translate(719 7320)"/>
    </g>
    <g transform="translate(-369 -6970)">
      <circle id="Ellipse_173-239" data-name="Ellipse 173" class="cls-3" cx="2.5" cy="2.5" r="2.5" transform="translate(719 7320)"/>
    </g>
    <g transform="translate(-344 -6970)">
      <circle id="Ellipse_173-240" data-name="Ellipse 173" class="cls-3" cx="2.5" cy="2.5" r="2.5" transform="translate(719 7320)"/>
    </g>
  </g>
</svg>
